<?xml version="1.0" standalone="no"?>
<!DOCTYPE svg PUBLIC "-//W3C//DTD SVG 20010904//EN"
 "http://www.w3.org/TR/2001/REC-SVG-20010904/DTD/svg10.dtd">
<svg version="1.0" xmlns="http://www.w3.org/2000/svg"
 width="917.000000pt" height="590.000000pt" viewBox="0 0 917.000000 590.000000"
 preserveAspectRatio="xMidYMid meet">

<g transform="translate(0.000000,590.000000) scale(0.100000,-0.100000)"
fill="#000000" stroke="none">
<path d="M0 2950 l0 -2950 125 0 c77 0 125 4 125 10 0 7 227 10 660 10 l661 0
-16 30 c-18 34 -19 83 -4 113 19 36 51 67 70 67 12 0 16 5 13 15 -4 8 -2 15 4
15 6 0 27 23 47 51 87 122 233 271 420 429 194 165 331 305 458 468 32 42 34
71 8 103 -16 20 -26 23 -97 22 -55 -1 -96 -8 -134 -23 -30 -12 -79 -30 -108
-40 -62 -22 -219 -104 -300 -157 -343 -221 -742 -525 -742 -566 0 -5 -18 -8
-43 -5 -41 5 -45 3 -72 -34 -17 -22 -37 -50 -45 -63 -8 -12 -51 -62 -95 -110
-92 -100 -100 -113 -109 -178 -11 -89 -63 -133 -111 -95 -45 35 -52 64 -51
193 1 130 14 173 59 196 12 7 42 28 67 49 48 39 161 115 182 123 10 3 10 9 0
27 -7 12 -12 23 -10 25 2 1 19 10 38 20 40 21 249 162 439 297 209 150 214
156 187 221 -11 28 -22 36 -59 46 -159 39 -438 -19 -671 -142 -104 -55 -238
-137 -288 -176 -22 -18 -31 -19 -54 -11 -39 15 -75 4 -119 -36 l-38 -34 6 -73
c4 -40 11 -86 17 -102 6 -17 16 -68 24 -115 15 -95 8 -141 -27 -165 -28 -19
-100 -19 -137 0 l-30 16 0 293 0 294 25 30 c14 17 25 37 25 47 0 9 36 58 81
108 44 51 92 111 106 135 54 90 91 240 64 257 -10 6 -16 -1 -91 -116 -47 -72
-186 -229 -202 -229 -5 0 -8 46 -8 102 l0 102 114 172 c63 94 126 194 140 222
64 127 98 288 59 280 -10 -2 -30 -36 -54 -93 -40 -97 -108 -225 -197 -373
l-57 -93 -3 148 -2 149 36 94 c20 52 45 122 56 155 16 44 36 76 79 121 68 72
78 100 54 153 -22 51 -17 80 20 100 17 9 48 27 70 41 22 14 57 33 77 42 80 36
178 154 178 215 0 51 -51 62 -182 42 -88 -14 -131 -6 -153 27 -28 44 -12 70
126 203 203 194 299 331 299 426 0 101 -28 100 -203 -3 -297 -176 -345 -198
-372 -171 -14 14 -18 31 -16 60 1 17 144 169 382 408 134 134 160 171 214 303
41 99 46 173 15 230 l-20 38 30 15 c16 8 37 15 47 15 19 0 89 23 98 31 2 3
-19 46 -48 95 -45 77 -59 93 -104 117 -28 15 -87 36 -130 47 -112 29 -114 35
-55 106 61 73 84 110 156 250 l58 111 4 111 c3 99 2 113 -14 121 -10 5 -26 9
-37 8 -38 -4 -50 117 -18 178 25 46 63 183 63 226 l0 46 -170 6 c-94 4 -254 4
-355 0 l-185 -6 0 41 0 42 -125 0 -125 0 0 -2950z m590 1404 c0 -8 -4 -12 -10
-9 -5 3 -10 2 -10 -3 0 -12 31 -26 45 -22 6 1 35 4 65 7 30 2 88 6 128 9 81 7
99 -8 31 -26 -31 -9 -43 -18 -51 -41 -10 -30 -109 -119 -133 -119 -7 0 -40
-18 -73 -40 -68 -46 -69 -46 -94 -23 -28 25 -22 61 18 101 28 28 37 46 41 82
4 42 10 92 12 98 4 10 31 -1 31 -14z"/>
<path d="M575 4250 c-3 -5 -1 -10 4 -10 6 0 11 5 11 10 0 6 -2 10 -4 10 -3 0
-8 -4 -11 -10z"/>
<path d="M9050 4915 c0 -542 -1 -985 -3 -985 -1 0 -61 21 -132 46 -157 56
-435 153 -565 199 -52 18 -178 62 -280 98 -996 352 -1341 473 -1780 622 -493
168 -1676 567 -1710 577 -44 12 -381 122 -610 200 -226 76 -355 118 -364 118
-3 0 -6 -4 -6 -9 0 -16 94 -53 355 -138 143 -47 325 -107 405 -135 80 -27 249
-85 375 -128 127 -43 275 -95 330 -115 55 -20 132 -47 170 -60 39 -13 129 -45
200 -70 72 -25 245 -84 385 -131 140 -47 262 -88 270 -91 8 -3 20 -7 25 -9 9
-2 110 -37 330 -115 44 -15 170 -59 280 -97 110 -38 207 -72 215 -75 8 -3 60
-21 115 -40 220 -76 486 -170 585 -207 47 -17 110 -40 140 -50 30 -10 107 -37
170 -60 63 -23 192 -69 285 -102 213 -74 460 -165 503 -184 18 -8 61 -23 95
-35 34 -11 97 -34 140 -51 l77 -29 0 -1930 0 -1929 60 0 60 0 0 2950 0 2950
-60 0 -60 0 0 -985z"/>
<path d="M3032 5142 c-5 -14 19 -242 63 -607 14 -110 25 -215 25 -234 0 -35
-21 -60 -52 -61 -9 0 -19 -4 -23 -9 -3 -5 6 -112 19 -238 14 -125 32 -309 41
-408 9 -99 22 -243 30 -320 8 -77 21 -212 29 -300 9 -88 31 -320 51 -515 19
-195 44 -451 55 -569 12 -117 22 -254 23 -304 l2 -91 -53 -15 c-29 -8 -51 -19
-49 -24 6 -20 72 -48 97 -42 21 5 41 9 70 14 3 1 6 40 7 89 1 48 13 157 27
242 96 589 111 697 98 734 -14 39 -33 185 -37 291 -2 44 -7 101 -10 127 -3 26
-8 138 -11 250 -3 112 -8 277 -10 368 -3 91 -7 260 -8 375 -2 116 -5 245 -7
288 -2 42 -1 77 2 77 18 0 -12 621 -31 645 -4 6 -9 24 -11 40 -2 17 -7 36 -12
42 -5 7 -7 19 -4 28 4 8 1 20 -6 27 -7 7 -19 28 -26 46 -8 18 -21 37 -30 41
-45 24 -250 34 -259 13z"/>
<path d="M5542 4573 c66 -71 80 -162 55 -350 -41 -299 -47 -356 -41 -375 3
-11 3 -65 -1 -120 -6 -79 -10 -98 -21 -94 -8 3 -14 2 -14 -2 0 -4 -9 -77 -19
-162 -11 -85 -27 -231 -36 -325 -9 -93 -23 -199 -30 -235 -8 -36 -23 -137 -34
-225 -64 -496 -168 -1252 -186 -1350 -26 -138 -72 -200 -168 -226 -22 -6 -47
-14 -56 -19 -36 -18 -98 -26 -120 -16 -17 7 -25 6 -31 -3 -6 -10 -9 -10 -12
-1 -2 7 -28 12 -66 13 -34 1 -62 5 -62 8 0 3 -15 7 -32 8 -57 3 -101 9 -148
21 -25 6 -79 13 -120 15 -78 4 -204 21 -230 31 -14 6 -189 31 -220 32 -8 1
-35 4 -60 7 -25 4 -66 7 -92 8 -27 1 -48 5 -48 8 0 3 -15 7 -32 8 -54 3 -102
9 -125 16 -36 11 -27 -3 17 -25 118 -60 226 -84 715 -161 105 -16 217 -34 250
-39 33 -5 100 -16 148 -25 48 -8 129 -20 180 -25 51 -5 108 -12 127 -15 19 -3
80 -5 135 -6 95 -1 103 0 176 34 83 40 155 104 164 148 4 16 11 31 16 34 5 4
9 16 9 29 0 12 5 27 11 33 7 7 13 39 15 72 2 33 9 99 15 148 6 48 13 102 14
118 12 116 37 284 45 303 6 13 8 27 5 32 -3 5 0 20 7 35 8 18 17 25 30 22 14
-4 11 4 -13 31 -44 49 -59 91 -59 160 0 53 7 74 65 190 63 127 81 177 50 136
-9 -11 -13 -13 -10 -4 2 8 7 33 9 55 7 58 16 121 28 195 6 36 11 88 12 115 1
28 6 57 10 64 4 6 9 22 11 34 1 12 8 60 14 107 6 47 14 119 17 160 3 41 9 84
13 95 9 22 39 207 48 295 3 30 9 57 13 60 4 3 12 43 18 90 14 117 16 124 27
132 6 5 6 8 -2 8 -6 0 -9 9 -6 20 3 11 9 18 13 15 4 -3 8 14 8 38 0 61 13 141
23 145 12 5 11 35 0 81 -5 20 -14 68 -21 106 -15 97 -31 145 -51 158 -9 6 -14
17 -11 26 4 10 1 13 -12 8 -9 -4 -15 -3 -12 2 3 5 -4 11 -17 15 -12 3 -33 16
-47 28 -14 13 -45 30 -70 37 -25 7 -62 20 -83 27 -20 8 -56 14 -79 14 l-42 0
26 -27z"/>
<path d="M4690 4525 c77 -15 207 -29 200 -22 -6 6 -222 37 -248 36 -9 0 12 -7
48 -14z"/>
<path d="M3956 4419 c-38 -172 -468 -2659 -461 -2667 4 -5 168 -31 480 -77
489 -72 1138 -165 1151 -165 13 0 21 52 79 475 20 143 47 339 60 435 13 96 36
259 50 363 14 103 36 271 50 375 14 103 35 255 46 337 36 278 70 519 85 619 8
54 13 101 10 104 -6 5 -630 96 -1181 171 -165 23 -314 44 -332 47 -28 5 -33 3
-37 -17z m588 -1113 c25 -30 46 -60 45 -68 0 -9 -2 -8 -7 3 -4 8 -25 37 -47
63 -34 41 -40 45 -46 29 -7 -16 -8 -15 -8 5 -1 34 12 27 63 -32z m-67 -33 c-3
-10 -5 -4 -5 12 0 17 2 24 5 18 2 -7 2 -21 0 -30z m183 -39 c0 -8 -5 -12 -10
-9 -6 4 -8 11 -5 16 9 14 15 11 15 -7z m-193 -31 c-3 -10 -5 -4 -5 12 0 17 2
24 5 18 2 -7 2 -21 0 -30z m113 -9 c0 -14 -4 -23 -9 -20 -5 3 -7 15 -4 26 7
28 13 25 13 -6z m67 -21 c-3 -10 -5 -4 -5 12 0 17 2 24 5 18 2 -7 2 -21 0 -30z
m-190 -30 c-3 -10 -5 -4 -5 12 0 17 2 24 5 18 2 -7 2 -21 0 -30z m60 -15 c-3
-7 -5 -2 -5 12 0 14 2 19 5 13 2 -7 2 -19 0 -25z m50 -15 c-3 -10 -5 -4 -5 12
0 17 2 24 5 18 2 -7 2 -21 0 -30z m70 -10 c-3 -10 -5 -4 -5 12 0 17 2 24 5 18
2 -7 2 -21 0 -30z m-190 -20 c-3 -10 -5 -4 -5 12 0 17 2 24 5 18 2 -7 2 -21 0
-30z m60 -20 c-3 -10 -5 -4 -5 12 0 17 2 24 5 18 2 -7 2 -21 0 -30z m48 -33
c-4 -28 -9 -49 -12 -47 -2 3 -1 28 3 56 4 28 9 50 11 47 3 -3 2 -28 -2 -56z
m72 3 c-3 -10 -5 -4 -5 12 0 17 2 24 5 18 2 -7 2 -21 0 -30z m-194 -34 c-6 -6
-7 3 -4 23 4 28 6 29 9 9 2 -13 0 -27 -5 -32z m64 -6 c-3 -10 -5 -4 -5 12 0
17 2 24 5 18 2 -7 2 -21 0 -30z m120 -20 c-3 -10 -5 -4 -5 12 0 17 2 24 5 18
2 -7 2 -21 0 -30z m-510 -18 c2 -26 1 -27 -5 -7 -10 33 -24 32 -33 -2 -6 -22
-3 -35 11 -53 14 -18 18 -34 13 -56 -8 -47 -24 -61 -48 -43 -16 11 -17 18 -8
37 l12 24 0 -28 c1 -40 25 -29 29 12 2 20 -3 40 -13 51 -16 17 -15 65 2 93 11
19 38 0 40 -28z m104 6 c-5 -4 -15 -40 -22 -81 -11 -72 -27 -131 -28 -100 0 8
6 51 14 95 9 49 11 81 5 83 -22 8 -8 19 16 14 14 -2 21 -8 15 -11z m66 -95
c-9 -55 -11 -89 -5 -93 16 -9 26 16 33 81 4 34 11 70 16 81 l8 20 0 -20 c1
-27 -24 -159 -33 -174 -8 -13 -16 -14 -34 -2 -11 7 -12 23 -2 87 12 87 20 118
26 111 3 -2 -2 -43 -9 -91z m531 64 c-36 -36 -33 -53 13 -61 l34 -6 -41 -2
-42 -1 -11 -77 c-6 -42 -14 -79 -18 -82 -3 -3 -3 14 1 39 19 126 19 128 0 133
-16 4 -15 5 4 6 12 0 22 7 22 15 0 15 45 66 59 66 5 0 -4 -14 -21 -30z m111 4
c12 -15 21 -34 21 -43 0 -9 -8 -1 -17 17 -9 19 -26 38 -37 42 -16 7 -17 9 -4
9 9 1 26 -11 37 -25z m-487 -64 c-3 -96 -13 -125 -43 -125 -28 0 -28 1 -9 118
12 70 15 78 34 75 19 -3 21 -9 18 -68z m83 28 c-6 -28 -25 -149 -25 -162 0 -5
-3 -7 -6 -3 -9 8 18 187 28 187 5 0 6 -10 3 -22z m104 13 c11 -7 11 -22 2 -82
-18 -115 -20 -119 -41 -119 -29 0 -32 14 -19 102 14 101 25 120 58 99z m336
-69 c-8 -2 -15 -28 -20 -69 -4 -37 -11 -76 -16 -87 -6 -15 -7 -7 -3 23 4 31 2
46 -7 52 -21 13 -67 11 -72 -3 -4 -10 -8 -9 -16 2 -17 23 -13 31 12 25 12 -2
38 -6 57 -7 34 -3 35 -2 38 35 3 37 3 37 -35 39 l-38 1 45 6 c25 3 50 2 57 -4
8 -7 8 -11 -2 -13z"/>
<path d="M4390 2844 c-12 -84 -10 -102 8 -90 12 7 35 152 27 166 -15 24 -24 5
-35 -76z"/>
<path d="M4585 2878 c-23 -102 -22 -179 1 -155 9 9 23 91 23 140 1 40 -15 51
-24 15z"/>
<path d="M7166 2558 c-49 -110 -168 -343 -174 -341 -4 1 -16 4 -27 8 -11 3 -7
-1 10 -11 16 -9 31 -13 33 -8 2 5 45 95 96 199 l93 190 37 -77 c36 -74 37 -77
22 -107 -12 -22 -27 -33 -56 -41 -38 -10 -43 -17 -85 -100 -25 -49 -45 -94
-45 -99 0 -9 58 -36 65 -30 2 2 30 56 62 119 56 112 59 115 97 123 21 4 41 5
44 2 3 -3 -25 -68 -62 -146 -37 -78 -66 -142 -64 -144 2 -1 14 -8 28 -14 25
-11 25 -11 3 4 l-21 16 69 144 c38 79 69 148 69 154 0 6 -11 6 -32 0 -57 -16
-69 -13 -56 16 9 21 5 37 -28 110 -21 46 -43 85 -47 85 -4 0 -19 -24 -31 -52z
m50 -225 c-7 -16 -30 -63 -50 -105 -19 -43 -38 -78 -41 -78 -4 0 -15 5 -26 10
-18 10 -17 15 26 99 44 88 53 99 88 100 16 1 16 -1 3 -26z"/>
<path d="M6528 2296 c-20 -42 -20 -46 -5 -70 16 -24 16 -28 0 -61 -16 -34 -36
-45 -48 -25 -3 5 -1 19 5 30 7 13 7 20 1 20 -13 0 -25 -45 -16 -59 3 -6 16
-11 29 -11 35 0 62 66 46 112 -11 29 -10 39 4 67 20 37 42 36 39 -3 -2 -32 5
-34 16 -3 10 26 -3 47 -30 47 -13 0 -27 -15 -41 -44z"/>
<path d="M8596 2282 c13 -31 24 -75 24 -97 0 -41 -7 -58 -100 -270 -29 -66
-93 -212 -143 -325 -49 -113 -112 -250 -140 -305 -27 -55 -72 -149 -98 -209
-27 -60 -59 -120 -71 -134 -32 -34 -90 -61 -145 -69 -46 -6 -47 -7 -18 -14 45
-13 135 4 184 34 34 21 87 96 111 157 19 51 79 181 96 210 31 52 154 314 154
327 0 5 10 26 21 48 12 22 30 63 40 92 9 28 51 125 93 216 47 102 76 177 76
198 0 69 -35 144 -85 181 l-22 17 23 -57z"/>
<path d="M6681 2272 c9 -15 3 -35 -35 -111 -26 -51 -45 -95 -42 -98 3 -3 28
40 55 96 38 74 55 99 66 95 27 -11 16 5 -15 21 -38 19 -43 19 -29 -3z"/>
<path d="M6756 2124 c-49 -102 -51 -126 -10 -132 15 -2 29 17 67 93 26 52 47
101 47 108 -1 6 -19 -24 -41 -68 -60 -118 -68 -129 -84 -115 -12 10 -7 27 31
102 25 49 44 94 42 100 -2 6 -25 -34 -52 -88z"/>
<path d="M6890 2060 c-27 -55 -50 -103 -50 -108 0 -5 11 -14 25 -20 32 -15 40
-6 89 95 40 84 41 104 7 123 -19 10 -25 3 -71 -90z m79 66 c15 -17 -65 -179
-91 -184 -10 -2 -18 2 -18 8 0 18 82 190 90 190 4 0 13 -6 19 -14z"/>
<path d="M7033 2014 c-56 -116 -63 -134 -54 -134 10 0 104 200 97 207 -3 3
-22 -30 -43 -73z"/>
<path d="M7149 2033 c-28 -35 -92 -181 -86 -197 4 -9 18 -16 32 -16 22 0 30
12 70 96 25 54 45 98 45 100 0 6 -32 34 -39 34 -4 0 -14 -8 -22 -17z m41 -17
c0 -8 -19 -53 -41 -100 -38 -79 -59 -101 -73 -77 -9 14 82 191 99 191 8 0 15
-6 15 -14z"/>
<path d="M7413 1980 c-18 -11 -33 -25 -33 -31 0 -7 -9 -9 -25 -5 -28 7 -33 -1
-10 -18 12 -9 9 -23 -26 -95 -22 -46 -38 -89 -36 -95 3 -6 24 30 47 79 23 50
43 91 45 93 4 5 185 -87 185 -94 0 -9 -30 -64 -36 -64 -2 0 -31 14 -64 30 -33
17 -62 30 -65 30 -8 0 -5 -34 4 -49 8 -12 12 -12 24 -2 13 10 23 8 56 -9 l41
-20 -21 -41 c-11 -22 -18 -46 -16 -52 2 -7 25 29 50 80 35 68 51 91 62 87 8
-4 15 -1 15 5 0 6 -4 11 -10 11 -5 0 -10 25 -10 56 0 50 -3 59 -34 90 -41 41
-92 46 -143 14z m119 -11 c19 -10 48 -65 48 -91 -1 -40 -17 -40 -101 2 -46 23
-86 44 -89 47 -3 3 8 16 23 29 30 26 83 32 119 13z"/>
<path d="M3100 333 c-100 -9 -520 -124 -693 -189 -37 -14 -131 -48 -210 -74
l-142 -49 556 0 556 -1 74 56 c140 107 164 137 152 195 -11 59 -110 80 -293
62z"/>
</g>
</svg>
